<?xml version="1.0" standalone="no"?>
<!DOCTYPE svg PUBLIC "-//W3C//DTD SVG 20010904//EN"
 "http://www.w3.org/TR/2001/REC-SVG-20010904/DTD/svg10.dtd">
<svg version="1.0" xmlns="http://www.w3.org/2000/svg"
 width="460.000000pt" height="460.000000pt" viewBox="0 0 460.000000 460.000000"
 preserveAspectRatio="xMidYMid meet">
<metadata>
Created by potrace 1.11, written by Peter Selinger 2001-2013
</metadata>
<g transform="translate(0.000000,460.000000) scale(0.100000,-0.100000)"
fill="#000000" stroke="none">
<path d="M2151 3832 c-7 -6 -11 -14 -7 -20 4 -6 -2 -10 -13 -9 -11 0 -17 6
-14 14 3 7 0 13 -6 13 -6 0 -11 -6 -11 -14 0 -14 -48 -36 -79 -36 -9 0 -23 -9
-31 -20 -8 -11 -25 -20 -37 -20 -13 0 -23 -4 -23 -10 0 -5 -7 -10 -15 -10 -20
0 -80 -33 -114 -62 -15 -13 -43 -32 -64 -42 -33 -17 -169 -136 -155 -136 3 0
0 -17 -7 -37 -10 -30 -20 -40 -48 -48 -36 -10 -59 -25 -39 -25 6 0 11 -8 11
-17 1 -10 3 -36 4 -57 2 -23 -6 -71 -20 -113 -12 -41 -23 -85 -23 -98 0 -13
-8 -32 -18 -42 -20 -20 -29 -113 -11 -113 6 0 7 -5 2 -12 -12 -19 -11 -138 1
-131 5 4 7 -1 3 -10 -3 -9 -2 -19 3 -22 6 -4 10 -15 10 -26 0 -10 5 -19 10
-19 6 0 10 -11 10 -25 0 -35 19 -72 47 -90 12 -9 23 -22 23 -30 0 -9 4 -23 9
-33 5 -9 12 -25 15 -35 3 -10 10 -16 14 -13 5 3 7 -5 5 -18 -6 -28 14 -138 25
-145 5 -3 13 -19 18 -36 7 -22 10 9 14 120 3 83 7 140 8 127 1 -16 10 -24 32
-29 17 -3 30 -11 30 -19 0 -7 3 -15 8 -17 4 -3 7 26 7 65 l0 70 35 15 c22 10
80 17 162 20 70 3 125 10 122 14 -5 9 -176 4 -253 -7 -27 -4 -54 -16 -69 -31
-52 -52 -73 -4 -39 87 12 33 26 133 20 143 -3 6 -1 7 5 3 8 -5 12 4 12 26 1
68 11 158 19 180 13 33 44 66 59 61 7 -3 12 4 12 16 0 13 5 19 14 15 10 -4 16
2 18 17 2 13 14 29 28 36 22 11 26 10 30 -5 6 -22 58 -22 74 0 8 11 21 14 40
11 20 -4 31 0 42 16 8 11 21 21 29 21 7 0 16 6 18 13 4 9 8 9 15 -2 8 -11 13
-9 27 12 26 41 105 58 105 23 0 -6 5 -4 10 4 7 11 10 11 10 2 0 -7 4 -11 9 -8
4 3 8 -13 8 -36 0 -23 5 -44 12 -46 6 -2 11 -12 11 -23 0 -19 20 -26 34 -11 4
4 13 7 19 7 7 0 13 6 13 13 3 24 4 27 12 16 4 -6 16 -14 28 -18 15 -5 24 -1
32 16 8 17 11 19 11 6 1 -14 11 -16 63 -14 52 2 65 -2 86 -21 30 -27 33 -28
25 -6 -4 11 -3 14 5 9 8 -4 12 0 12 11 0 14 3 14 16 -6 13 -18 18 -20 25 -10
7 11 9 11 9 -2 0 -10 20 -24 51 -37 32 -14 53 -29 56 -42 3 -11 14 -20 25 -20
25 0 76 -57 88 -98 5 -19 5 -44 0 -60 -20 -62 -19 -117 5 -174 5 -13 2 -18 -9
-18 -9 0 -16 -4 -16 -8 0 -5 10 -8 22 -8 14 1 23 -5 23 -14 1 -8 7 -14 15 -12
12 3 13 1 2 -10 -18 -18 -69 -19 -69 -2 0 10 7 12 20 8 13 -4 17 -2 13 5 -11
17 -49 14 -42 -4 5 -13 -16 -15 -146 -15 -83 0 -149 -2 -147 -5 3 -2 75 -6
160 -8 92 -2 162 -8 174 -15 11 -6 14 -12 7 -12 -7 0 -10 -5 -6 -12 4 -6 3 -8
-4 -4 -6 4 -5 -8 3 -31 8 -21 17 -56 21 -78 5 -25 9 -33 12 -21 3 15 6 16 13
5 7 -11 9 -9 9 7 0 12 6 24 14 27 12 5 14 -3 13 -33 -2 -21 0 -37 3 -35 9 5
11 -122 4 -187 -4 -39 -10 -58 -20 -58 -8 0 -11 6 -7 18 6 16 5 16 -13 1 -10
-9 -27 -19 -37 -22 -18 -7 -41 -53 -32 -67 3 -5 1 -11 -5 -15 -6 -3 -10 4 -11
17 0 22 -1 22 -8 3 -5 -11 -7 -23 -4 -28 2 -4 -3 -10 -12 -13 -10 -4 -13 -13
-9 -27 5 -14 0 -25 -17 -38 -23 -18 -24 -18 -5 -32 19 -14 19 -15 -2 -26 -24
-13 -33 -3 -30 29 5 63 -3 92 -37 126 -19 19 -40 32 -46 28 -13 -7 -40 26 -34
43 2 6 -7 19 -21 27 -13 9 -24 26 -24 38 0 12 -3 18 -7 15 -3 -4 -12 2 -20 13
-8 11 -19 20 -26 20 -8 0 -8 -3 1 -12 15 -15 16 -28 2 -28 -6 0 -17 15 -26 33
-14 28 -93 92 -102 82 -2 -1 2 -21 8 -44 10 -37 13 -40 30 -29 15 10 22 9 38
-6 41 -36 27 -95 -26 -111 -19 -5 -25 -2 -29 15 -4 15 -10 19 -22 14 -9 -3
-45 -13 -80 -21 -51 -12 -68 -13 -86 -3 -14 8 -35 10 -52 5 -76 -19 -101 -18
-113 5 -7 12 -10 33 -7 46 2 13 0 24 -4 24 -5 0 -9 -22 -9 -50 0 -39 5 -54 23
-70 12 -12 30 -29 40 -38 11 -10 33 -16 60 -16 39 1 40 0 15 -8 -16 -5 -28
-13 -28 -17 0 -13 155 -19 215 -8 l40 8 -34 -16 c-18 -8 -44 -15 -58 -15 -13
0 -21 -4 -18 -10 7 -11 -18 -14 -29 -3 -13 14 -142 23 -166 12 -35 -16 -117
-39 -137 -39 -25 0 -39 16 -21 23 10 4 10 6 0 6 -7 1 -10 6 -7 11 3 6 -1 10
-10 10 -8 0 -18 6 -21 14 -3 9 -12 12 -22 9 -12 -5 -11 0 6 24 24 33 28 53 12
53 -5 0 -10 -9 -10 -20 0 -13 -7 -20 -18 -20 -10 0 -22 -4 -28 -10 -14 -14
-107 -16 -112 -2 -2 7 -10 12 -17 12 -7 0 -16 6 -18 13 -3 7 -6 8 -6 1 -1 -6
-12 -9 -25 -7 -16 3 -23 10 -19 19 3 8 -1 14 -10 14 -10 0 -13 -8 -9 -25 2
-14 9 -22 15 -18 6 4 8 0 4 -10 -8 -21 2 -49 14 -41 5 3 9 14 9 25 0 12 4 17
11 14 6 -4 8 -13 5 -21 -7 -19 3 -44 19 -44 7 0 20 -10 29 -22 15 -22 16 -22
29 -5 19 23 33 22 40 -3 7 -26 23 -26 30 0 3 11 10 20 16 20 6 0 8 -7 5 -15
-4 -8 -1 -22 6 -30 7 -8 9 -15 5 -15 -4 0 4 -11 19 -25 14 -13 26 -29 26 -36
0 -6 7 -8 16 -5 9 3 18 6 20 6 2 0 4 7 4 16 0 12 3 14 13 6 7 -6 24 -8 37 -5
19 5 22 3 17 -10 -5 -13 -1 -17 16 -17 16 0 18 -3 8 -9 -19 -12 -4 -49 29 -69
23 -14 25 -19 14 -30 -10 -9 -14 -9 -14 -2 0 7 -6 10 -12 7 -7 -2 -21 3 -31
11 -12 11 -21 12 -28 5 -8 -8 -8 -13 0 -17 6 -4 11 -14 11 -22 0 -12 -4 -12
-20 -4 -11 6 -19 19 -18 28 4 23 -26 22 -30 0 -2 -10 1 -18 7 -18 6 0 11 -5
11 -11 0 -13 46 -59 59 -59 17 0 31 26 20 37 -21 21 1 35 26 19 21 -14 26 -14
39 -1 18 19 66 20 66 1 0 -10 12 -12 51 -8 42 4 53 1 61 -12 11 -19 51 -15 99
10 25 12 26 12 21 -12 -2 -13 -8 -24 -13 -24 -5 0 -9 -5 -9 -11 0 -5 5 -7 11
-3 7 4 43 8 82 10 l69 3 -5 -35 c-8 -50 -66 -104 -118 -111 -34 -5 -43 -2 -57
18 -9 13 -17 28 -18 34 0 5 -2 17 -3 25 -1 13 -2 13 -11 0 -5 -8 -12 -11 -16
-8 -3 4 -13 1 -20 -7 -12 -11 -19 -11 -45 2 -27 14 -32 13 -48 -1 -14 -12 -20
-13 -30 -3 -10 9 -11 8 -6 -6 4 -9 4 -28 1 -42 -5 -21 -11 -24 -41 -21 -20 2
-38 6 -42 10 -3 3 -17 6 -29 6 -13 0 -31 8 -41 19 -10 10 -28 24 -41 30 -13 7
-21 18 -19 25 3 7 -3 20 -14 29 -10 9 -19 22 -19 29 0 9 3 8 10 -2 5 -8 10
-13 11 -10 0 3 2 14 4 25 2 10 0 24 -5 30 -4 5 -11 28 -15 50 -10 52 -15 59
-28 41 -14 -18 -36 -5 -56 32 -6 12 -18 22 -26 22 -18 0 -57 -20 -67 -35 -4
-6 -8 -2 -8 8 0 22 -17 22 -29 -1 -11 -22 -6 -48 20 -99 12 -23 19 -58 19 -92
0 -50 3 -58 33 -86 19 -16 37 -38 40 -48 4 -11 16 -21 27 -24 11 -3 20 -13 20
-22 0 -9 22 -32 48 -51 26 -19 49 -37 52 -40 34 -34 123 -91 137 -87 15 4 15
5 2 6 -9 0 -19 7 -22 15 -5 12 0 12 26 4 143 -44 160 -47 223 -41 36 3 67 10
70 14 3 5 15 9 27 8 12 0 16 -3 10 -6 -17 -6 -17 -33 0 -33 8 0 40 20 73 45
32 24 64 45 70 45 7 0 26 13 44 30 35 33 55 31 46 -5 -3 -13 -2 -26 3 -30 6
-3 20 -19 31 -35 16 -23 17 -28 6 -24 -12 5 -16 0 -16 -19 0 -14 -5 -29 -10
-32 -6 -3 -10 -14 -10 -24 0 -10 -17 -35 -37 -57 -21 -21 -37 -44 -35 -51 2
-7 -5 -16 -14 -20 -15 -6 -15 -7 2 -21 18 -13 18 -14 -7 -10 -22 4 -25 2 -21
-19 5 -25 27 -31 35 -9 5 12 32 14 79 7 4 -1 19 -13 33 -28 14 -16 23 -21 20
-12 -4 10 0 16 9 16 48 0 -105 -132 -197 -169 -10 -4 -15 -12 -12 -18 3 -5 3
-15 -1 -21 -4 -8 -9 -7 -15 2 -6 10 -9 11 -9 2 0 -8 -13 -13 -29 -13 -20 0
-31 -6 -34 -18 -4 -14 -5 -15 -6 -1 -1 14 -16 17 -98 19 -162 4 -173 5 -173
13 0 4 6 7 13 7 6 1 -2 7 -18 14 -38 16 -175 104 -175 112 0 3 6 2 13 -2 9 -6
9 -5 0 8 -7 8 -10 18 -6 21 3 4 0 7 -7 7 -9 0 -7 5 6 15 17 13 17 14 2 15 -10
0 -18 6 -18 13 0 20 -35 57 -54 57 -9 0 -16 6 -16 13 0 7 -10 17 -22 22 -13 6
-22 16 -20 23 3 16 -15 16 -21 0 -3 -7 -6 -3 -6 8 -1 12 -8 27 -16 34 -8 7
-15 18 -15 24 0 7 -9 21 -19 33 -14 14 -19 35 -19 73 -1 66 -11 112 -23 104
-11 -7 -11 -2 1 31 6 16 6 24 0 20 -5 -3 -12 6 -16 20 -7 30 -8 30 -45 4 -40
-28 -62 -74 -62 -131 0 -26 -3 -46 -7 -43 -4 2 -22 -12 -41 -32 l-34 -36 38
28 c41 30 41 30 51 -2 5 -17 1 -25 -16 -34 -13 -6 -36 -24 -53 -39 -29 -26
-36 -28 -160 -34 -71 -3 -157 -10 -190 -16 -33 -6 -131 -19 -218 -30 -314 -39
-392 -83 -404 -228 -3 -39 -3 -78 0 -87 6 -14 9 -14 29 -1 104 68 381 101 883
107 l130 1 50 42 c56 48 95 71 95 58 0 -6 -11 -17 -24 -26 -14 -9 -43 -34 -66
-56 -24 -23 -46 -38 -53 -33 -11 6 3 -13 45 -60 9 -11 14 -26 11 -33 -3 -9 0
-12 8 -9 18 6 63 -31 54 -45 -3 -5 0 -8 7 -5 15 6 36 -6 106 -58 38 -28 51
-44 49 -60 -1 -16 4 -23 21 -25 12 -2 22 -7 22 -11 0 -4 7 -8 15 -8 10 0 13 7
9 24 -6 22 -4 23 32 17 22 -3 42 -8 45 -10 9 -5 -2 -64 -12 -64 -5 0 -10 -8
-10 -17 -1 -10 -5 -2 -9 17 l-7 35 -3 -35 c-1 -19 -2 -39 -1 -44 1 -5 -5 -6
-13 -3 -24 9 -29 -11 -6 -23 11 -6 20 -18 20 -26 0 -8 5 -12 11 -9 6 4 7 19 4
37 -5 20 -4 28 3 24 6 -3 13 2 16 11 4 15 5 15 4 -2 -1 -65 0 -66 40 -60 l37
6 -23 -20 c-20 -18 -21 -20 -5 -24 17 -4 17 -5 1 -6 -19 -1 -26 -31 -7 -31 5
0 7 -5 4 -10 -4 -6 -11 -7 -17 -4 -5 4 -20 2 -31 -4 -12 -5 -33 -15 -47 -21
-21 -9 -15 -10 35 -6 56 5 100 10 118 13 4 1 7 11 7 22 0 16 -7 20 -32 21 -18
1 -25 3 -15 6 9 2 15 8 12 13 -3 4 11 8 31 8 38 0 37 3 17 -60 -3 -10 0 -18 6
-18 6 0 11 5 11 10 0 6 5 10 10 10 6 0 10 -8 10 -17 0 -15 -9 -18 -57 -16 -32
1 -48 -1 -35 -4 13 -2 26 -11 29 -19 3 -8 19 -14 42 -14 24 0 31 -3 22 -9 -21
-13 2 -21 35 -11 24 7 25 8 7 9 -13 1 -23 6 -23 11 0 9 14 14 33 11 4 0 7 5 7
12 0 8 4 7 10 -3 8 -12 10 -11 10 7 0 17 -5 21 -20 18 -11 -2 -25 -7 -30 -10
-9 -5 -10 -1 -10 32 0 10 27 10 62 1 17 -4 29 -2 32 5 2 7 5 4 5 -5 1 -14 5
-13 28 8 20 19 24 27 15 36 -8 8 -12 8 -12 1 0 -14 -35 -23 -51 -12 -10 6 -11
9 -1 9 6 0 12 8 13 18 0 14 2 14 9 -3 5 -11 9 -15 9 -9 1 6 17 15 36 21 27 9
37 8 46 -3 8 -10 15 -12 23 -4 7 7 6 14 -2 22 -23 23 -12 27 56 22 47 -3 63
-2 52 5 -8 6 -23 11 -32 11 -10 0 -18 4 -18 9 0 4 11 6 23 4 17 -3 24 0 24 12
0 13 -7 16 -28 11 -26 -5 -27 -3 -20 17 7 19 16 22 55 21 40 0 47 2 43 17 -3
12 0 16 9 12 7 -3 12 -10 11 -15 -2 -11 40 -18 61 -11 28 11 11 33 -25 34 -21
1 -30 3 -20 6 9 2 15 9 11 14 -3 5 -10 7 -15 4 -5 -4 -9 -1 -9 4 0 6 9 11 19
11 11 0 26 6 34 14 8 8 23 16 33 18 10 2 22 8 26 13 5 6 8 5 8 -2 0 -7 5 -13
10 -13 6 0 9 5 8 11 -2 6 3 14 10 16 6 3 12 0 12 -7 0 -6 4 -9 10 -5 5 3 6 13
3 21 -4 10 2 17 16 21 11 3 21 9 21 14 0 5 5 9 11 9 5 0 7 -4 4 -10 -3 -5 2
-10 11 -10 16 0 16 1 -1 20 -10 11 -21 17 -26 15 -4 -3 -11 0 -15 6 -4 8 -3 9
4 5 7 -4 12 -2 12 5 0 8 5 5 13 -5 12 -16 14 -16 26 -2 13 16 6 40 -9 31 -12
-7 -33 32 -24 46 3 6 15 -2 28 -20 15 -19 27 -27 35 -22 10 6 5 16 -18 40 -17
18 -29 36 -26 42 7 10 35 -14 35 -30 0 -17 41 -24 53 -8 10 12 29 13 107 6 52
-5 129 -15 170 -24 41 -8 122 -22 180 -30 272 -39 405 -79 468 -142 l23 -23
11 31 c8 24 13 28 20 17 7 -9 8 -5 4 12 -4 14 -8 48 -10 77 -2 39 -11 61 -34
90 -61 76 -105 109 -167 126 -124 33 -241 60 -285 64 -72 7 -158 22 -252 45
-100 24 -112 19 -114 -44 -1 -41 -57 -138 -80 -138 -8 0 -14 5 -14 11 0 5 -4
8 -9 5 -5 -3 -14 1 -20 8 -17 21 1 27 32 11 15 -8 27 -10 27 -6 0 4 -11 13
-25 19 -13 6 -38 30 -55 53 -16 23 -30 35 -30 26 0 -8 11 -29 25 -45 14 -17
21 -33 16 -36 -5 -3 -19 10 -30 30 -12 20 -24 34 -27 32 -9 -10 15 -56 40 -75
14 -11 23 -23 19 -27 -3 -3 9 -9 27 -12 30 -7 31 -8 15 -20 -16 -12 -21 -10
-40 9 -13 12 -23 25 -24 30 0 4 -10 17 -21 29 -11 12 -20 27 -20 34 0 7 -8 18
-17 23 -16 9 -16 10 -1 11 9 0 21 13 27 31 10 28 31 33 31 6 0 -16 58 -77 73
-77 8 0 8 3 -2 9 -21 14 5 24 31 11 21 -9 21 -9 3 2 -29 19 -75 68 -75 81 0 6
10 1 23 -10 12 -11 36 -28 52 -38 l30 -17 -25 21 c-30 25 -32 27 -65 66 -24
28 -26 28 -19 6 5 -18 3 -22 -7 -15 -14 8 29 -67 44 -77 5 -4 5 -9 -1 -13 -6
-4 -16 4 -23 16 -6 13 -20 32 -31 44 -16 18 -17 25 -6 50 6 16 14 31 15 34 2
2 22 -16 44 -40 33 -37 36 -39 15 -9 -36 50 -32 59 8 20 19 -18 40 -31 48 -28
9 4 9 6 -3 6 -17 1 -69 51 -53 51 6 0 16 -6 23 -12 10 -9 12 -9 7 -1 -3 6 2
16 11 22 10 6 13 11 8 11 -6 0 -17 -6 -24 -12 -11 -11 -13 -10 -8 4 4 10 3 17
-1 15 -13 -4 -62 41 -62 57 0 19 11 21 29 4 11 -11 12 -10 6 1 -5 9 -3 12 6 9
8 -3 13 -10 12 -16 -2 -6 4 -9 12 -6 11 4 8 12 -13 31 -22 20 -23 24 -7 19 17
-5 16 -3 -5 14 -14 11 -33 22 -42 26 -10 3 -18 14 -18 25 0 16 4 19 21 14 15
-5 19 -4 15 4 -4 6 -16 11 -27 11 -13 0 -24 10 -30 28 -7 18 -30 38 -72 62
l-62 35 0 115 0 115 38 62 c21 33 43 78 48 100 5 21 12 47 15 58 12 43 33 162
33 191 1 23 7 33 21 37 13 3 22 17 26 36 4 17 10 29 14 26 4 -3 13 1 19 9 16
19 33 78 20 71 -13 -9 -11 16 4 45 7 14 21 61 31 105 22 95 45 157 57 149 8
-4 14 43 10 69 0 4 4 7 10 7 7 0 4 11 -7 28 -12 18 -13 23 -3 15 12 -10 18 -8
32 8 10 11 21 18 26 15 4 -3 8 0 8 7 0 7 4 20 8 29 5 12 2 20 -9 24 -11 4 -13
10 -8 18 17 21 20 55 6 75 -12 17 -12 21 0 28 14 8 20 25 17 50 0 6 -16 16
-33 23 -18 7 -27 14 -20 17 6 3 10 8 7 13 -3 5 4 11 15 15 24 8 26 23 3 32
-22 9 -61 53 -68 78 -4 11 -19 45 -34 75 -16 30 -37 83 -47 117 -10 35 -22 63
-26 63 -3 0 -16 16 -28 35 -16 25 -33 38 -63 46 -23 6 -50 15 -59 20 -10 5
-25 9 -33 9 -9 0 -13 5 -10 11 4 6 12 8 19 6 6 -2 19 -1 28 2 15 5 16 9 5 31
-11 22 -19 25 -70 25 -31 0 -57 4 -57 8 0 5 -18 7 -40 4 -22 -2 -37 0 -34 5 3
4 9 6 14 3 4 -2 10 7 13 21 3 18 1 22 -6 15 -6 -6 -19 -11 -29 -11 -10 0 -21
-7 -24 -15 -4 -8 -11 -15 -16 -15 -6 0 -8 6 -5 14 3 8 -1 20 -9 26 -8 7 -14 8
-14 3 0 -20 -41 -11 -49 11 -25 65 -102 121 -155 113 -17 -2 -42 0 -56 6 -14
5 -38 11 -55 12 -16 1 -59 5 -95 9 -37 4 -71 3 -79 -2z m833 -1198 c5 -14 4
-15 -9 -4 -17 14 -19 20 -6 20 5 0 12 -7 15 -16z m-351 -468 c12 4 21 -5 34
-33 10 -21 22 -41 28 -45 5 -4 6 -10 3 -13 -4 -4 -17 2 -29 14 -13 12 -29 21
-36 21 -19 0 -16 -40 5 -63 17 -20 16 -20 -18 -12 -98 22 -144 33 -134 34 7 1
14 10 17 21 3 14 14 20 32 20 21 0 26 4 21 16 -6 15 -4 15 18 0 14 -9 27 -12
31 -7 3 5 1 12 -5 16 -5 3 -10 15 -10 27 0 16 3 18 14 9 7 -6 21 -9 29 -5z
m-323 -62 c0 -9 -5 -14 -12 -12 -18 6 -21 28 -4 28 9 0 16 -7 16 -16z m440
-21 c0 -13 -3 -13 -15 -3 -8 7 -15 19 -15 27 0 13 3 13 15 3 8 -7 15 -19 15
-27z m-347 20 c-7 -2 -19 -2 -25 0 -7 3 -2 5 12 5 14 0 19 -2 13 -5z m-613
-23 c0 -11 -4 -20 -8 -20 -4 0 -8 9 -8 20 0 11 4 20 8 20 4 0 8 -9 8 -20z
m575 10 c3 -6 -4 -10 -17 -10 -18 0 -20 2 -8 10 19 12 18 12 25 0z m-435 -35
c0 -8 -4 -15 -10 -15 -5 0 -7 7 -4 15 4 8 8 15 10 15 2 0 4 -7 4 -15z m825
-97 c-9 -56 -27 -82 -54 -73 -15 4 -21 15 -21 36 0 17 4 28 10 24 5 -3 6 -13
3 -22 -4 -11 -2 -14 8 -11 8 3 13 13 11 23 -2 9 1 14 7 11 5 -3 15 10 21 30
16 46 23 37 15 -18z m-45 16 c0 -8 -4 -12 -10 -9 -5 3 -10 10 -10 16 0 5 5 9
10 9 6 0 10 -7 10 -16z m-723 -9 c8 -9 13 -19 10 -22 -6 -5 -37 21 -37 31 0
10 11 6 27 -9z m548 -25 c3 -6 -1 -13 -10 -16 -19 -8 -30 0 -20 15 8 14 22 14
30 1z m111 -62 c-6 -10 -14 -18 -18 -18 -10 0 -10 32 -2 54 6 15 8 15 19 -1
10 -13 10 -21 1 -35z m-410 28 c4 -10 22 -12 77 -8 40 3 74 9 76 15 2 6 6 5
10 -1 4 -6 22 -7 49 -2 23 4 42 5 42 1 0 -9 -85 -42 -106 -42 -11 1 -26 1 -34
1 -8 1 -27 -2 -42 -6 -19 -4 -36 0 -57 15 -16 12 -34 21 -39 21 -6 0 -14 5
-17 10 -3 6 3 10 15 10 11 0 23 -6 26 -14z m472 -44 c2 -7 -3 -12 -12 -12 -9
0 -16 7 -16 16 0 17 22 14 28 -4z m-443 -302 c-3 -5 -12 -10 -18 -10 -7 0 -6
4 3 10 19 12 23 12 15 0z m-466 -101 c-13 -26 -20 -21 -12 9 3 12 9 19 14 16
5 -3 4 -14 -2 -25z m1024 1 c-3 -11 -10 -23 -16 -27 -5 -3 -8 -2 -5 3 3 5 8
17 11 27 9 24 16 22 10 -3z m65 -31 c19 -30 11 -32 -11 -3 -10 13 -14 24 -10
24 5 0 14 -9 21 -21z m19 -76 c-3 -10 -5 -4 -5 12 0 17 2 24 5 18 2 -7 2 -21
0 -30z m-767 17 c0 -5 -2 -10 -4 -10 -3 0 -8 5 -11 10 -3 6 -1 10 4 10 6 0 11
-4 11 -10z m896 -56 c10 -8 12 -12 4 -8 -13 7 -13 6 -1 -9 15 -19 12 -31 -4
-19 -15 11 -36 52 -27 52 4 0 17 -7 28 -16z m-1342 -88 c-16 -14 -33 -26 -39
-26 -5 -1 -21 -14 -33 -31 l-24 -29 26 11 c14 7 26 15 26 19 0 4 18 19 40 34
59 39 49 15 -14 -34 -71 -54 -94 -82 -42 -51 21 13 50 35 64 48 26 24 36 25
27 2 -9 -19 -101 -89 -119 -89 -8 0 -18 18 -25 44 -14 57 -14 56 6 56 9 0 32
12 51 28 69 53 111 67 56 18z m1344 -31 c0 -14 -4 -25 -9 -25 -5 0 -9 11 -9
25 0 14 4 25 9 25 5 0 9 -11 9 -25z m-1291 -60 c-9 -8 -19 -15 -22 -15 -4 0
-17 -9 -29 -20 -11 -10 -32 -28 -46 -39 -52 -40 -12 -27 57 19 40 27 75 44 78
40 3 -5 -3 -11 -12 -14 -10 -4 -34 -20 -53 -37 -50 -44 -81 -55 -97 -33 -7 10
-13 20 -12 23 0 3 32 27 72 53 69 46 96 55 64 23z m17 -82 c-27 -21 -55 -43
-63 -51 -7 -7 -20 -11 -28 -7 -11 4 -13 1 -9 -11 5 -14 4 -15 -9 -4 -13 11
-12 14 8 29 12 9 39 26 60 36 21 11 43 26 49 33 6 6 17 12 26 12 8 0 -7 -17
-34 -37z m1049 12 c-3 -9 -8 -14 -10 -11 -3 3 -2 9 2 15 9 16 15 13 8 -4z
m-1009 -26 c-15 -9 -31 -25 -36 -33 -5 -9 -13 -16 -19 -16 -5 0 -19 -9 -31
-20 -12 -11 -28 -20 -37 -20 -8 0 5 17 28 37 62 52 105 81 114 75 5 -2 -4 -13
-19 -23z m226 -13 c0 -11 -19 -15 -25 -6 -3 5 1 10 9 10 9 0 16 -2 16 -4z
m894 -22 c4 -9 4 -19 1 -22 -3 -3 -5 0 -5 6 0 7 -7 12 -16 12 -12 0 -14 -3 -6
-13 16 -19 34 -69 22 -62 -6 3 -10 13 -10 21 0 8 -4 12 -10 9 -6 -3 -7 1 -4
10 5 11 2 14 -10 9 -10 -4 -15 -13 -12 -20 6 -16 -10 -19 -19 -4 -6 9 42 70
56 70 4 0 10 -7 13 -16z m-1064 -14 c-14 -11 -29 -20 -33 -20 -5 0 -5 -4 -2
-10 3 -5 2 -10 -2 -10 -5 0 -21 -11 -36 -25 -15 -14 -27 -22 -27 -18 0 4 -4 1
-10 -7 -5 -8 -13 -11 -17 -6 -4 5 -2 11 5 14 8 2 37 26 65 53 28 27 58 49 67
49 10 0 7 -7 -10 -20z m-1 -55 c-24 -25 -48 -45 -53 -45 -6 0 1 12 17 25 15
13 27 28 27 33 0 10 43 42 49 36 2 -2 -16 -24 -40 -49z m48 -9 c-18 -18 -36
-31 -41 -28 -5 3 -7 -1 -4 -9 5 -15 -19 -45 -29 -35 -6 6 36 65 69 96 35 32
39 12 5 -24z m1113 -46 c0 -6 -4 -10 -8 -10 -11 0 -52 48 -52 61 0 5 -4 7 -10
4 -6 -4 -7 1 -3 11 5 13 3 15 -7 9 -9 -5 -11 -4 -6 4 5 8 20 -1 47 -29 21 -22
39 -45 39 -50z m-1057 51 c-5 -3 -17 -19 -27 -35 -13 -21 -21 -25 -29 -17 -9
9 -4 19 18 40 17 16 34 26 39 24 4 -3 4 -8 -1 -12z m881 3 c8 -22 8 -24 -8
-24 -15 0 -28 24 -19 34 11 10 21 7 27 -10z m-29 -43 l7 -24 -24 24 c-16 16
-21 26 -14 31 13 9 21 0 31 -31z m-815 19 c0 -6 -9 -18 -20 -27 -11 -10 -20
-23 -20 -30 0 -7 -4 -13 -10 -13 -5 0 -12 -11 -16 -25 -3 -14 -10 -25 -15 -25
-14 0 -11 7 24 71 28 52 57 77 57 49z m33 -25 c-3 -8 -9 -15 -13 -15 -4 0 -14
-15 -21 -32 -7 -18 -18 -46 -25 -63 l-12 -30 1 37 c1 20 5 34 10 31 4 -3 7 1
5 8 -4 19 41 91 52 84 5 -3 7 -12 3 -20z m733 -1 c2 -12 -1 -13 -12 -3 -7 6
-11 16 -8 21 7 11 17 3 20 -18z m137 1 c-3 -9 -8 -14 -10 -11 -3 3 -2 9 2 15
9 16 15 13 8 -4z m-858 -49 c-14 -24 -23 -50 -20 -58 4 -9 0 -15 -10 -15 -8 0
-15 3 -15 6 0 14 54 111 62 111 5 0 -3 -20 -17 -44z m689 33 c-2 -4 0 -10 6
-14 15 -9 12 -22 -5 -22 -8 0 -12 4 -9 9 3 4 -2 11 -10 14 -19 7 -13 21 8 21
8 0 13 -4 10 -8z m-834 -9 c0 -5 -5 -10 -11 -10 -5 0 -7 5 -4 10 3 6 8 10 11
10 2 0 4 -4 4 -10z m194 -20 c-22 -43 -34 -46 -21 -5 6 19 16 35 23 35 9 0 9
-7 -2 -30z m591 20 c3 -5 1 -10 -4 -10 -6 0 -11 5 -11 10 0 6 2 10 4 10 3 0 8
-4 11 -10z m-545 -19 c-14 -27 -36 -40 -27 -17 4 10 7 22 7 27 0 5 7 9 15 9
12 0 14 -4 5 -19z m512 -15 c2 -19 0 -32 -4 -30 -4 3 -8 13 -8 23 0 9 -5 22
-12 29 -9 9 -8 12 4 12 11 0 17 -11 20 -34z m132 18 c5 -14 4 -15 -9 -4 -17
14 -19 20 -6 20 5 0 12 -7 15 -16z m-600 -2 c-6 -4 -14 -14 -17 -22 -4 -10 -6
-8 -6 8 -1 15 5 22 17 22 10 0 13 -3 6 -8z m719 -15 c4 3 7 4 7 0 0 -18 -21
-14 -30 5 -10 21 -10 21 3 6 8 -10 17 -15 20 -11z m-1022 -10 c-13 -13 -26 -3
-16 12 3 6 11 8 17 5 6 -4 6 -10 -1 -17z m346 17 c-3 -3 -12 -4 -19 -1 -8 3
-5 6 6 6 11 1 17 -2 13 -5z m393 -33 c0 -6 -4 -13 -10 -16 -5 -3 -10 1 -10 9
0 9 5 16 10 16 6 0 10 -4 10 -9z m234 -6 c-4 -8 -8 -15 -10 -15 -2 0 -4 7 -4
15 0 8 4 15 10 15 5 0 7 -7 4 -15z m-607 -17 c-3 -8 -6 -5 -6 6 -1 11 2 17 5
13 3 -3 4 -12 1 -19z m-184 -8 c3 -11 1 -18 -4 -14 -5 3 -9 12 -9 20 0 20 7
17 13 -6z m140 0 c3 -11 1 -18 -4 -14 -5 3 -9 12 -9 20 0 20 7 17 13 -6z m620
6 c6 -15 -1 -26 -15 -26 -4 0 -8 9 -8 20 0 23 15 27 23 6z m-709 -18 c-3 -4
-9 -8 -15 -8 -5 0 -9 4 -9 8 0 5 7 9 15 9 8 0 12 -4 9 -9z m660 -4 c9 -24 7
-28 -9 -14 -17 14 -20 30 -6 30 5 0 12 -7 15 -16z m-130 -30 c3 -8 2 -12 -4
-9 -6 3 -10 1 -10 -6 0 -7 -2 -10 -5 -7 -5 5 4 38 10 38 2 0 6 -7 9 -16z m86
6 c0 -5 -5 -10 -11 -10 -5 0 -7 5 -4 10 3 6 8 10 11 10 2 0 4 -4 4 -10z m-43
-22 c-3 -8 -6 -5 -6 6 -1 11 2 17 5 13 3 -3 4 -12 1 -19z m-184 -18 c3 -11 1
-18 -4 -14 -5 3 -9 12 -9 20 0 20 7 17 13 -6z m87 16 c0 -3 -4 -8 -10 -11 -5
-3 -10 -1 -10 4 0 6 5 11 10 11 6 0 10 -2 10 -4z m-550 -54 c0 -5 -7 -9 -15
-9 -8 0 -15 4 -15 9 0 4 7 8 15 8 8 0 15 -4 15 -8z m630 -12 c0 -5 -10 -15
-22 -21 l-23 -12 20 21 c23 24 25 25 25 12z m-121 -74 c-9 -8 -11 -7 -6 5 3 9
0 22 -6 29 -9 10 -9 11 1 6 7 -4 13 -2 13 6 1 7 4 2 6 -11 3 -13 -1 -28 -8
-35z m-239 23 c0 -11 -4 -18 -10 -14 -5 3 -7 12 -3 20 7 21 13 19 13 -6z m193
12 c4 -1 7 -5 7 -10 0 -10 -67 -20 -92 -13 -10 2 -18 8 -18 13 0 11 47 16 103
10z m-343 -5 c0 -3 -4 -8 -10 -11 -5 -3 -10 -1 -10 4 0 6 5 11 10 11 6 0 10
-2 10 -4z m100 -46 c0 -5 -2 -10 -4 -10 -3 0 -8 5 -11 10 -3 6 -1 10 4 10 6 0
11 -4 11 -10z m120 -4 c0 -9 -7 -12 -20 -9 -11 3 -17 9 -14 14 8 14 34 10 34
-5z m140 -2 c0 -17 -22 -14 -28 4 -2 7 3 12 12 12 9 0 16 -7 16 -16z m-197 -9
c-3 -9 -8 -14 -10 -11 -3 3 -2 9 2 15 9 16 15 13 8 -4z m-80 -86 c-6 -6 -7 3
-4 23 4 28 6 29 9 9 2 -13 0 -27 -5 -32z m147 -9 c0 -5 -4 -10 -10 -10 -5 0
-10 5 -10 10 0 6 5 10 10 10 6 0 10 -4 10 -10z m-45 -20 c-3 -5 -16 -10 -28
-9 -21 0 -21 1 -2 9 28 12 37 12 30 0z m-85 -90 c0 -5 -2 -10 -4 -10 -3 0 -8
5 -11 10 -3 6 -1 10 4 10 6 0 11 -4 11 -10z"/>
<path d="M1485 3260 c-3 -5 -1 -10 4 -10 6 0 11 5 11 10 0 6 -2 10 -4 10 -3 0
-8 -4 -11 -10z"/>
<path d="M2711 2813 c-10 -11 -25 -14 -55 -10 -22 3 -61 1 -87 -5 -37 -9 -49
-16 -53 -35 -5 -17 -13 -23 -35 -23 -19 0 -34 -8 -45 -25 -20 -30 -20 -39 -2
-32 8 3 19 0 25 -7 11 -14 5 -26 -13 -26 -6 0 -4 5 4 10 13 8 13 10 -2 10 -9
0 -19 -4 -22 -8 -8 -14 11 -35 25 -27 8 4 3 -3 -11 -14 -53 -44 -81 -53 -127
-39 -24 7 -45 20 -49 30 -3 10 -11 17 -17 15 -7 -1 -11 7 -9 21 2 12 -1 22 -7
22 -6 0 -8 6 -5 14 6 15 -28 56 -46 56 -5 0 -10 7 -10 16 0 10 -7 14 -22 12
-14 -2 -22 2 -21 9 4 18 -31 25 -63 13 -22 -9 -29 -8 -36 5 -13 22 -78 21 -78
-2 0 -35 10 -39 118 -46 12 -1 22 -8 22 -15 0 -7 16 -20 35 -29 20 -10 34 -22
31 -29 -3 -9 1 -11 11 -7 10 4 14 2 10 -4 -4 -6 -1 -13 5 -16 7 -3 -14 -3 -47
-1 l-60 4 55 -13 c109 -26 130 -36 130 -63 0 -21 -4 -24 -20 -19 -22 7 -26 -5
-9 -22 8 -8 8 -13 0 -17 -14 -9 -15 -56 -1 -56 6 0 10 -12 10 -26 0 -22 2 -25
15 -14 8 7 15 26 15 42 0 16 4 27 9 24 4 -3 14 7 20 22 9 18 9 28 2 30 -6 2
-9 8 -5 13 7 12 91 12 99 -1 3 -5 -1 -10 -11 -10 -14 0 -14 -2 3 -17 11 -10
29 -40 39 -68 17 -46 19 -47 22 -22 3 23 6 26 18 16 12 -9 14 -6 14 24 0 20
-4 39 -10 42 -5 3 -10 10 -10 16 0 14 28 11 33 -3 3 -7 6 -3 6 10 1 19 -3 22
-19 17 -13 -4 -20 -2 -20 7 0 10 -3 9 -10 -2 -7 -11 -8 -7 -6 15 2 26 9 32 49
46 59 20 64 25 32 33 l-27 7 24 19 c55 42 121 70 169 70 46 0 62 11 39 25 -5
3 -10 11 -10 16 0 6 7 3 16 -5 8 -9 19 -16 24 -16 4 0 6 -9 3 -20 -7 -28 23
-27 38 1 9 18 7 25 -12 44 -32 31 -61 38 -78 18z m-201 -168 c0 -2 -9 -3 -19
-2 -11 0 -18 5 -15 9 4 6 34 0 34 -7z"/>
<path d="M1850 2805 c-14 -16 -10 -18 14 -9 9 3 16 10 16 15 0 14 -16 11 -30
-6z"/>
<path d="M2877 2801 c-2 -10 -1 -25 4 -32 6 -10 9 -4 9 19 0 36 -5 42 -13 13z"/>
<path d="M2586 2619 c-27 -4 -54 -13 -60 -20 -8 -9 -8 -10 1 -5 9 5 11 -1 7
-24 -4 -19 -2 -30 5 -30 6 0 11 4 11 9 0 5 19 2 43 -6 23 -8 75 -17 115 -20
65 -5 72 -8 58 -21 -22 -22 -99 -18 -141 7 -37 21 -120 37 -110 20 4 -5 15 -9
26 -9 10 0 19 -4 19 -8 0 -15 93 -51 142 -56 25 -2 52 -7 58 -11 8 -5 10 -2 6
12 -5 16 2 22 44 37 30 11 49 23 48 32 -2 7 6 20 17 29 11 9 14 13 6 9 -10 -5
-11 -1 -7 14 5 14 1 21 -13 25 -11 3 -21 1 -23 -4 -2 -5 -23 -3 -48 5 -58 19
-142 25 -204 15z m24 -49 c0 -11 -6 -20 -14 -20 -18 0 -29 16 -21 30 11 18 35
11 35 -10z m106 -22 c-15 -10 -16 -6 -9 22 6 22 7 22 13 4 4 -10 2 -22 -4 -26z"/>
<path d="M1915 2611 c-58 -15 -116 -53 -102 -67 8 -8 179 -16 212 -10 24 5 35
13 39 31 7 29 18 32 36 10 10 -12 9 -15 -6 -15 -11 0 -26 -13 -36 -29 -18 -32
-75 -55 -115 -45 -27 7 -32 -12 -5 -20 37 -11 204 48 201 72 -3 19 2 25 11 12
9 -13 10 -13 10 1 0 8 -6 21 -12 28 -11 11 -10 12 2 6 12 -6 12 -4 -1 9 -12
13 -38 18 -110 21 -52 3 -107 1 -124 -4z m55 -47 c0 -8 -7 -14 -15 -14 -15 0
-21 21 -9 33 10 9 24 -2 24 -19z"/>
<path d="M2460 2599 c-12 -9 -10 -10 8 -6 19 5 21 3 11 -9 -6 -8 -10 -17 -7
-19 9 -9 30 24 23 35 -8 13 -16 13 -35 -1z"/>
<path d="M1870 2515 c0 -8 2 -15 4 -15 2 0 6 7 10 15 3 8 1 15 -4 15 -6 0 -10
-7 -10 -15z"/>
<path d="M2185 2360 c-3 -6 1 -7 9 -4 18 7 21 14 7 14 -6 0 -13 -4 -16 -10z"/>
<path d="M2092 2240 c0 -14 2 -19 5 -12 2 6 2 18 0 25 -3 6 -5 1 -5 -13z"/>
<path d="M2013 2203 c-7 -2 -13 -11 -13 -18 0 -16 54 -30 72 -18 9 5 3 9 -17
13 -16 4 -29 11 -27 18 1 7 1 12 0 11 -2 0 -9 -3 -15 -6z"/>
<path d="M2510 1700 c0 -5 5 -10 10 -10 6 0 10 5 10 10 0 6 -4 10 -10 10 -5 0
-10 -4 -10 -10z"/>
<path d="M2355 1680 c4 -6 11 -8 16 -5 14 9 11 15 -7 15 -8 0 -12 -5 -9 -10z"/>
<path d="M2200 1611 c0 -6 5 -13 10 -16 6 -3 10 1 10 9 0 9 -4 16 -10 16 -5 0
-10 -4 -10 -9z"/>
<path d="M3190 1315 c14 -8 30 -14 35 -14 6 0 -1 6 -15 14 -14 8 -29 14 -35
14 -5 0 1 -6 15 -14z"/>
<path d="M2210 1310 c8 -5 24 -10 35 -10 17 0 17 2 5 10 -8 5 -24 10 -35 10
-17 0 -17 -2 -5 -10z"/>
<path d="M1639 1259 c-24 -22 -35 -36 -24 -31 29 16 79 61 73 67 -3 3 -25 -13
-49 -36z"/>
<path d="M2465 1290 c-3 -5 -1 -10 4 -10 6 0 11 5 11 10 0 6 -2 10 -4 10 -3 0
-8 -4 -11 -10z"/>
<path d="M3256 1285 c10 -8 24 -14 29 -14 6 0 1 6 -9 14 -11 8 -24 15 -30 15
-5 0 -1 -7 10 -15z"/>
<path d="M3310 1260 c8 -5 20 -10 25 -10 6 0 3 5 -5 10 -8 5 -19 10 -25 10 -5
0 -3 -5 5 -10z"/>
<path d="M3061 1219 c7 -13 14 -19 16 -13 2 6 16 9 31 6 15 -3 24 -2 21 2 -4
4 -18 8 -31 10 -13 1 -30 6 -37 10 -11 7 -11 4 0 -15z"/>
<path d="M3118 1143 c7 -3 16 -2 19 1 4 3 -2 6 -13 5 -11 0 -14 -3 -6 -6z"/>
<path d="M3700 1080 c8 -5 20 -10 25 -10 6 0 3 5 -5 10 -8 5 -19 10 -25 10 -5
0 -3 -5 5 -10z"/>
<path d="M3746 1061 c17 -18 108 -62 95 -47 -12 14 -85 56 -98 56 -4 0 -3 -4
3 -9z"/>
<path d="M1680 840 c0 -5 7 -7 15 -4 8 4 15 8 15 10 0 2 -7 4 -15 4 -8 0 -15
-4 -15 -10z"/>
<path d="M2926 837 c3 -10 9 -15 12 -12 3 3 0 11 -7 18 -10 9 -11 8 -5 -6z"/>
<path d="M1725 830 c3 -5 11 -10 16 -10 6 0 7 5 4 10 -3 6 -11 10 -16 10 -6 0
-7 -4 -4 -10z"/>
<path d="M1735 791 c-9 -16 15 -24 31 -10 8 6 17 9 21 5 4 -3 -2 -13 -13 -21
-16 -12 -16 -14 -3 -15 9 0 22 7 30 16 10 13 10 17 -2 25 -18 11 -56 12 -64 0z"/>
<path d="M2978 783 c7 -3 16 -2 19 1 4 3 -2 6 -13 5 -11 0 -14 -3 -6 -6z"/>
<path d="M1685 760 c4 -6 11 -8 16 -5 14 9 11 15 -7 15 -8 0 -12 -5 -9 -10z"/>
<path d="M2970 760 c-13 -8 -12 -10 3 -10 9 0 17 5 17 10 0 12 -1 12 -20 0z"/>
<path d="M1861 724 c0 -11 3 -14 6 -6 3 7 2 16 -1 19 -3 4 -6 -2 -5 -13z"/>
<path d="M3008 733 c6 -2 18 -2 25 0 6 3 1 5 -13 5 -14 0 -19 -2 -12 -5z"/>
<path d="M1764 718 c-3 -4 6 -8 20 -8 16 0 26 -6 26 -15 0 -7 8 -19 18 -24 10
-6 12 -11 4 -11 -18 0 -5 -20 14 -20 8 0 14 6 14 14 0 8 8 13 17 12 10 0 19 7
21 19 2 11 0 16 -5 10 -4 -6 -23 -12 -41 -14 -30 -2 -32 -1 -27 22 6 21 3 24
-25 24 -17 0 -33 -4 -36 -9z"/>
<path d="M1720 716 c0 -2 7 -6 15 -10 8 -3 15 -1 15 4 0 6 -7 10 -15 10 -8 0
-15 -2 -15 -4z"/>
<path d="M2886 705 c4 -8 12 -15 20 -15 8 0 14 7 14 15 0 8 -9 15 -20 15 -13
0 -18 -5 -14 -15z"/>
<path d="M1715 680 c3 -5 8 -10 11 -10 2 0 4 5 4 10 0 6 -5 10 -11 10 -5 0 -7
-4 -4 -10z"/>
<path d="M1910 683 c0 -17 19 -35 29 -29 7 5 11 -1 11 -13 0 -12 5 -21 10 -21
6 0 10 14 10 30 0 28 -2 30 -26 24 -19 -5 -25 -4 -20 5 4 6 2 11 -3 11 -6 0
-11 -3 -11 -7z"/>
<path d="M4023 683 c-18 -7 -16 -23 2 -23 8 0 15 7 15 15 0 8 -1 15 -2 14 -2
0 -9 -3 -15 -6z"/>
<path d="M2890 660 c11 -20 30 -28 30 -12 0 11 -22 32 -32 32 -5 0 -4 -9 2
-20z"/>
<path d="M571 627 c0 -16 -5 -26 -10 -22 -12 7 -61 -63 -61 -85 0 -9 -4 -20
-9 -26 -14 -15 -41 -105 -41 -135 0 -16 -7 -32 -16 -37 -19 -11 -77 -226 -69
-259 3 -12 18 -31 34 -42 28 -21 40 -21 312 -19 274 3 282 4 285 23 2 11 8 47
15 80 11 61 16 94 21 130 2 16 -2 19 -21 17 -20 -2 -22 1 -17 23 5 20 3 25
-11 25 -10 0 -24 -4 -31 -9 -11 -7 -10 -9 3 -15 22 -8 9 -26 -20 -26 -50 0
-78 -33 -37 -43 16 -4 16 -5 0 -6 -21 -1 -23 -12 -6 -29 10 -10 10 -15 -2 -22
-12 -8 -16 -2 -18 30 -3 39 -15 52 -25 28 -4 -8 -6 -7 -6 3 -1 10 -9 16 -18
15 -16 -1 -19 11 -24 89 -7 115 -47 305 -64 305 -10 0 -11 -9 -4 -37 6 -27 5
-41 -4 -48 -7 -5 -11 -22 -9 -37 2 -17 -2 -28 -8 -28 -7 0 -10 -7 -6 -15 3
-10 -1 -15 -14 -15 -10 0 -21 -8 -23 -17 -27 -100 -38 -164 -45 -253 -6 -95
-8 -102 -20 -76 -6 15 -9 25 -4 22 4 -2 8 7 7 22 0 15 -4 26 -10 24 -5 -2 -9
-10 -7 -19 2 -8 -1 -12 -7 -8 -6 3 -11 16 -11 27 0 12 -3 18 -7 15 -10 -11
-63 89 -58 111 2 11 8 28 13 38 19 35 42 140 38 174 -2 19 3 46 13 64 11 21
15 41 10 61 l-7 30 -1 -28z m256 -459 c-3 -8 -6 -5 -6 6 -1 11 2 17 5 13 3 -3
4 -12 1 -19z m0 -70 c-3 -8 -6 -5 -6 6 -1 11 2 17 5 13 3 -3 4 -12 1 -19z"/>
<path d="M2755 640 c-3 -5 -1 -10 4 -10 6 0 11 5 11 10 0 6 -2 10 -4 10 -3 0
-8 -4 -11 -10z"/>
<path d="M2835 641 c-3 -5 -1 -12 5 -16 5 -3 10 1 10 9 0 18 -6 21 -15 7z"/>
<path d="M4001 634 c0 -11 3 -14 6 -6 3 7 2 16 -1 19 -3 4 -6 -2 -5 -13z"/>
<path d="M1875 630 c3 -5 8 -10 11 -10 2 0 4 5 4 10 0 6 -5 10 -11 10 -5 0 -7
-4 -4 -10z"/>
<path d="M4017 621 c-5 -22 3 -103 27 -256 8 -55 17 -134 19 -175 2 -41 2 -56
0 -32 -2 23 -8 40 -13 37 -6 -3 -7 0 -4 8 3 8 -2 21 -10 30 -10 10 -16 34 -16
64 0 26 -3 78 -6 115 -6 60 -9 66 -24 58 -22 -12 -43 -67 -29 -75 5 -4 9 -30
9 -60 0 -30 5 -66 10 -81 14 -35 19 -130 11 -179 -6 -35 -9 -26 -24 75 -9 63
-19 139 -23 168 -4 34 -12 57 -24 65 -16 11 -18 23 -15 70 2 31 6 61 10 67 10
15 25 2 25 -22 0 -20 1 -21 20 -3 24 22 26 55 4 55 -14 0 -15 -2 -3 -17 12
-14 12 -16 -1 -11 -10 3 -14 16 -12 39 l2 34 -19 -24 c-29 -38 -49 -115 -66
-266 -25 -211 -24 -207 -41 -201 -9 3 -22 6 -30 6 -8 0 -11 6 -8 15 4 8 1 15
-5 15 -6 0 -11 7 -11 16 0 13 -3 14 -14 5 -10 -8 -16 -9 -21 -1 -3 5 -10 10
-16 10 -14 0 -11 -28 4 -33 23 -8 2 -15 -30 -10 -18 3 -33 10 -33 17 0 6 -9
17 -20 24 -12 7 -20 8 -20 2 0 -5 5 -10 10 -10 24 0 7 -20 -17 -21 -25 -1 -24
-2 10 -13 21 -6 35 -15 32 -18 -4 -3 2 -19 12 -34 10 -15 18 -32 19 -38 0 -6
2 -17 2 -23 2 -10 57 -13 240 -13 l238 0 -8 102 c-4 57 -12 114 -17 128 -5 14
-12 48 -16 75 -14 114 -62 305 -77 305 -4 0 -8 7 -8 15 0 22 -17 18 -23 -4z"/>
<path d="M1938 570 c-5 -32 6 -49 18 -29 4 7 8 23 10 36 4 35 -23 28 -28 -7z"/>
<path d="M2828 593 c6 -2 18 -2 25 0 6 3 1 5 -13 5 -14 0 -19 -2 -12 -5z"/>
<path d="M1861 550 c2 -30 3 -31 6 -7 2 15 8 27 13 27 5 0 11 -12 13 -27 3
-24 4 -23 6 7 1 30 -2 36 -19 36 -17 0 -20 -6 -19 -36z"/>
<path d="M2050 574 c0 -11 -7 -14 -30 -10 -29 4 -35 -1 -31 -31 1 -8 -10 -13
-26 -13 -22 0 -25 -2 -13 -10 8 -5 25 -10 37 -10 12 0 25 -5 28 -11 11 -17 -2
-22 -25 -9 -18 10 -25 9 -38 -4 -21 -20 -7 -34 19 -18 11 7 25 9 32 5 7 -4 27
-8 44 -8 25 0 33 4 33 18 0 9 -7 17 -15 17 -8 0 -15 5 -15 10 0 6 -12 11 -27
11 -24 2 -25 2 -5 6 12 2 20 9 17 14 -4 5 5 9 19 9 14 0 26 5 26 10 0 6 -5 10
-11 10 -6 0 -9 7 -5 15 3 8 1 15 -4 15 -6 0 -10 -7 -10 -16z"/>
<path d="M1746 551 c-3 -5 1 -11 9 -15 15 -6 29 7 18 18 -9 9 -21 8 -27 -3z"/>
<path d="M2885 550 c-3 -5 1 -10 9 -10 8 0 18 5 21 10 3 6 -1 10 -9 10 -8 0
-18 -4 -21 -10z"/>
<path d="M2660 543 c0 -5 4 -14 9 -22 12 -18 41 -6 40 16 -1 17 -2 17 -6 1 -5
-22 -23 -24 -23 -3 0 8 -4 15 -10 15 -5 0 -10 -3 -10 -7z"/>
<path d="M2756 534 c-9 -8 -20 -13 -25 -10 -4 3 -7 -5 -6 -17 1 -12 3 -28 4
-35 2 -23 21 -2 21 23 0 18 7 26 25 31 14 3 25 10 25 15 0 14 -27 10 -44 -7z"/>
<path d="M790 519 c0 -18 2 -19 15 -9 8 7 15 16 15 21 0 5 -7 9 -15 9 -9 0
-15 -9 -15 -21z"/>
<path d="M834 520 c0 -11 6 -20 14 -20 7 0 10 5 7 10 -3 6 0 10 7 10 9 0 9 3
-2 10 -22 14 -26 12 -26 -10z"/>
<path d="M1802 531 c4 -13 18 -16 19 -4 0 4 -5 9 -11 12 -7 2 -11 -2 -8 -8z"/>
<path d="M2641 524 c0 -11 3 -14 6 -6 3 7 2 16 -1 19 -3 4 -6 -2 -5 -13z"/>
<path d="M2792 525 c-13 -7 -19 -16 -14 -19 6 -3 13 -2 17 4 3 6 18 7 33 3 25
-6 26 -5 10 10 -9 9 -18 17 -20 16 -2 -1 -14 -7 -26 -14z"/>
<path d="M2890 520 c-8 -5 -10 -10 -5 -10 6 0 17 5 25 10 8 5 11 10 5 10 -5 0
-17 -5 -25 -10z"/>
<path d="M885 510 c-19 -8 -19 -9 3 -9 12 -1 22 4 22 9 0 6 -1 10 -2 9 -2 0
-12 -4 -23 -9z"/>
<path d="M2860 490 c-9 -6 -10 -10 -3 -10 6 0 15 5 18 10 8 12 4 12 -15 0z"/>
<path d="M2692 479 c2 -6 8 -10 13 -10 5 0 11 4 13 10 2 6 -4 11 -13 11 -9 0
-15 -5 -13 -11z"/>
<path d="M2980 480 c0 -5 5 -10 10 -10 6 0 10 5 10 10 0 6 -4 10 -10 10 -5 0
-10 -4 -10 -10z"/>
<path d="M1030 466 c0 -9 5 -16 10 -16 6 0 10 4 10 9 0 6 -4 13 -10 16 -5 3
-10 -1 -10 -9z"/>
<path d="M810 458 l-25 -10 22 -11 c21 -9 22 -11 5 -23 -14 -11 -14 -14 -2
-14 8 -1 23 -3 33 -5 10 -2 17 3 17 11 0 9 -4 12 -10 9 -5 -3 -10 -1 -10 4 0
6 6 11 13 11 8 0 7 4 -3 10 -10 6 -11 10 -2 10 6 0 12 5 12 10 0 12 -17 12
-50 -2z"/>
<path d="M988 443 c7 -3 16 -2 19 1 4 3 -2 6 -13 5 -11 0 -14 -3 -6 -6z"/>
<path d="M2125 440 c-3 -5 1 -10 10 -10 9 0 13 5 10 10 -3 6 -8 10 -10 10 -2
0 -7 -4 -10 -10z"/>
<path d="M1788 433 c7 -3 16 -2 19 1 4 3 -2 6 -13 5 -11 0 -14 -3 -6 -6z"/>
<path d="M2700 420 c0 -5 5 -10 10 -10 6 0 10 5 10 10 0 6 -4 10 -10 10 -5 0
-10 -4 -10 -10z"/>
<path d="M1710 410 c0 -5 5 -10 10 -10 6 0 10 5 10 10 0 6 -4 10 -10 10 -5 0
-10 -4 -10 -10z"/>
<path d="M1855 410 c4 -6 11 -8 16 -5 14 9 11 15 -7 15 -8 0 -12 -5 -9 -10z"/>
<path d="M1960 405 c-14 -16 -3 -20 19 -6 8 5 9 11 3 15 -5 3 -15 -1 -22 -9z"/>
<path d="M2520 403 c0 -13 -3 -14 -12 -5 -15 15 -38 16 -38 1 0 -5 4 -8 9 -5
4 3 6 -6 3 -19 -4 -21 -7 -23 -24 -14 -17 9 -19 8 -10 -7 14 -25 42 -27 42 -3
0 12 7 19 19 19 10 0 21 7 25 15 3 8 13 15 23 16 16 0 16 1 -2 9 -30 13 -35
12 -35 -7z"/>
<path d="M2610 410 c0 -5 5 -10 10 -10 6 0 10 5 10 10 0 6 -4 10 -10 10 -5 0
-10 -4 -10 -10z"/>
<path d="M3648 413 c7 -3 16 -2 19 1 4 3 -2 6 -13 5 -11 0 -14 -3 -6 -6z"/>
<path d="M1535 400 c3 -5 8 -10 11 -10 2 0 4 5 4 10 0 6 -5 10 -11 10 -5 0 -7
-4 -4 -10z"/>
<path d="M2083 397 c-13 -5 -23 -14 -23 -19 0 -11 11 -10 39 6 29 16 15 28
-16 13z"/>
<path d="M2665 391 c-3 -5 -1 -12 5 -16 5 -3 10 1 10 9 0 18 -6 21 -15 7z"/>
<path d="M2858 393 c7 -3 16 -2 19 1 4 3 -2 6 -13 5 -11 0 -14 -3 -6 -6z"/>
<path d="M1848 383 c7 -3 16 -2 19 1 4 3 -2 6 -13 5 -11 0 -14 -3 -6 -6z"/>
<path d="M1110 370 c-9 -6 -10 -10 -3 -10 6 0 15 5 18 10 8 12 4 12 -15 0z"/>
<path d="M1905 370 c27 -12 43 -12 25 0 -8 5 -22 9 -30 9 -10 0 -8 -3 5 -9z"/>
<path d="M1778 363 c6 -2 18 -2 25 0 6 3 1 5 -13 5 -14 0 -19 -2 -12 -5z"/>
<path d="M2070 329 c0 -4 9 -9 20 -12 13 -3 20 0 20 8 0 8 -9 13 -20 12 -11
-1 -20 -4 -20 -8z"/>
<path d="M840 310 c0 -5 7 -7 15 -4 8 4 15 8 15 10 0 2 -7 4 -15 4 -8 0 -15
-4 -15 -10z"/>
<path d="M1550 310 c0 -5 5 -10 10 -10 6 0 10 5 10 10 0 6 -4 10 -10 10 -5 0
-10 -4 -10 -10z"/>
<path d="M2000 310 c0 -5 7 -10 16 -10 8 0 12 5 9 10 -3 6 -10 10 -16 10 -5 0
-9 -4 -9 -10z"/>
<path d="M2741 304 c0 -11 3 -14 6 -6 3 7 2 16 -1 19 -3 4 -6 -2 -5 -13z"/>
<path d="M2988 313 c7 -3 16 -2 19 1 4 3 -2 6 -13 5 -11 0 -14 -3 -6 -6z"/>
<path d="M1236 301 c-3 -5 1 -12 10 -15 22 -8 25 -4 9 11 -8 7 -16 9 -19 4z"/>
<path d="M1857 298 c-15 -11 -12 -13 23 -15 40 -1 53 10 24 21 -22 8 -28 8
-47 -6z"/>
<path d="M2067 290 c3 -12 0 -20 -6 -20 -7 0 -9 -4 -6 -10 9 -15 25 -12 25 5
0 8 7 15 16 15 8 0 12 5 9 10 -4 6 -11 8 -16 5 -5 -4 -9 -1 -9 4 0 6 -4 11 -9
11 -5 0 -7 -9 -4 -20z"/>
<path d="M2475 300 c-3 -5 1 -10 9 -10 8 0 18 5 21 10 3 6 -1 10 -9 10 -8 0
-18 -4 -21 -10z"/>
<path d="M2866 295 c-3 -8 -1 -15 4 -15 6 0 10 7 10 15 0 8 -2 15 -4 15 -2 0
-6 -7 -10 -15z"/>
<path d="M1997 283 c-4 -3 -7 -11 -7 -17 0 -7 3 -7 8 0 4 7 16 14 27 17 19 5
19 5 -1 6 -11 0 -24 -2 -27 -6z"/>
<path d="M2133 279 c10 -6 23 -6 33 -1 12 7 8 9 -18 10 -26 1 -30 -1 -15 -9z"/>
<path d="M2205 279 c-4 -6 -4 -13 0 -17 3 -3 9 -1 13 5 10 15 41 11 53 -8 7
-12 9 -11 9 2 0 27 -61 41 -75 18z"/>
<path d="M2608 283 c7 -3 16 -2 19 1 4 3 -2 6 -13 5 -11 0 -14 -3 -6 -6z"/>
<path d="M510 271 c0 -5 5 -13 10 -16 6 -3 10 -2 10 4 0 5 -4 13 -10 16 -5 3
-10 2 -10 -4z"/>
<path d="M2397 263 c3 -7 16 -13 30 -13 30 0 22 16 -11 22 -17 4 -23 1 -19 -9z"/>
<path d="M3680 245 c0 -14 4 -25 9 -25 5 0 16 -3 25 -6 9 -3 16 -1 16 4 0 6
-10 14 -22 18 -21 6 -20 7 8 19 l29 13 -32 1 c-29 1 -33 -2 -33 -24z"/>
<path d="M2300 251 c0 -6 5 -13 10 -16 6 -3 10 1 10 9 0 9 -4 16 -10 16 -5 0
-10 -4 -10 -9z"/>
<path d="M1645 240 c-3 -5 1 -10 10 -10 9 0 13 5 10 10 -3 6 -8 10 -10 10 -2
0 -7 -4 -10 -10z"/>
<path d="M1699 248 c-6 -21 -5 -39 2 -44 5 -3 9 6 9 20 0 21 -7 36 -11 24z"/>
<path d="M1775 238 c3 -7 0 -20 -5 -28 -8 -13 -11 -13 -19 -1 -7 11 -10 9 -16
-8 -4 -13 -4 -25 -2 -28 3 -3 2 -15 -3 -27 -4 -13 -5 -28 -1 -35 6 -10 10 -9
14 2 4 10 14 14 29 11 l23 -5 -22 10 c-27 12 -31 49 -5 58 9 4 20 11 23 16 8
12 -1 47 -12 47 -5 0 -6 -6 -4 -12z"/>
<path d="M1880 240 c-14 -3 -26 -14 -28 -24 -3 -14 1 -18 15 -14 11 3 28 -1
38 -8 10 -8 13 -14 7 -14 -7 0 -12 -7 -12 -15 0 -8 4 -15 9 -15 13 0 21 39 9
46 -5 3 -8 15 -5 25 6 23 -1 28 -33 19z"/>
<path d="M2241 238 c0 -10 -6 -18 -12 -18 -5 0 -8 4 -5 9 3 5 -9 8 -27 7 -17
-2 -31 -7 -30 -12 1 -5 -16 -8 -38 -6 l-39 4 0 -38 c0 -30 -3 -35 -12 -26 -7
7 -27 12 -45 12 -20 0 -33 5 -33 13 0 6 -5 4 -11 -5 -5 -10 -19 -18 -29 -18
-11 0 -20 -3 -20 -7 0 -12 68 -14 75 -3 19 30 50 -17 40 -61 -4 -16 -11 -29
-17 -29 -12 0 -7 52 7 62 6 5 3 8 -7 8 -9 0 -21 -8 -27 -17 -5 -10 -12 -17
-15 -15 -10 4 -7 -7 9 -37 8 -17 12 -37 9 -45 -4 -11 -1 -16 10 -16 9 0 16 6
16 13 0 8 2 9 8 1 4 -7 19 -12 34 -12 l27 1 -3 96 c-2 53 -1 78 2 56 l6 -40 7
40 c4 25 5 13 2 -31 -6 -99 2 -124 38 -124 l30 0 -7 89 c-7 90 2 119 23 75 6
-13 7 -24 2 -24 -5 0 -9 -31 -9 -70 l0 -69 45 1 c37 0 45 4 45 19 0 11 4 19 9
19 5 0 7 -9 4 -20 -6 -22 12 -28 20 -7 4 9 6 9 6 0 1 -9 24 -13 81 -13 73 0
80 2 80 19 0 11 4 22 9 25 4 3 6 -6 3 -19 -4 -24 -2 -25 40 -25 37 0 47 4 56
23 l11 22 0 -22 c1 -31 17 -29 23 1 4 19 0 26 -14 28 -26 4 -24 22 4 30 17 4
12 6 -19 7 -47 1 -57 15 -18 25 14 4 25 11 25 16 0 6 7 10 15 10 8 0 15 5 15
11 0 8 -17 10 -55 6 -31 -3 -55 -2 -55 4 0 9 33 13 78 9 12 -1 22 3 22 9 0 17
-41 33 -71 27 -15 -3 -31 -1 -34 4 -3 6 -16 5 -32 -1 -18 -6 -30 -6 -39 2 -17
14 -29 6 -19 -11 5 -8 21 -10 42 -7 24 4 33 2 30 -6 -2 -7 -18 -12 -35 -12
-16 0 -28 -3 -26 -7 8 -12 -14 -19 -40 -12 -20 5 -24 12 -24 37 1 18 3 26 5
20 5 -14 33 -18 33 -5 0 4 -10 16 -22 26 -15 14 -23 16 -26 7 -4 -11 -43 -32
-67 -36 -5 -1 -15 3 -22 8 -7 5 -16 6 -22 3 -5 -4 -12 4 -14 16 -3 15 -5 17
-6 6z m-72 -103 c-1 -36 -4 -65 -9 -65 -4 0 -11 25 -15 56 -5 43 -3 59 7 65 7
5 14 9 15 9 1 0 2 -29 2 -65z m188 28 c-3 -10 -5 -4 -5 12 0 17 2 24 5 18 2
-7 2 -21 0 -30z m230 31 c-3 -3 -12 -4 -19 -1 -8 3 -5 6 6 6 11 1 17 -2 13 -5z
m-281 -49 c-8 -23 -25 -9 -19 16 4 13 9 17 16 10 5 -5 7 -17 3 -26z m21 -42
c-2 -16 -4 -5 -4 22 0 28 2 40 4 28 2 -13 2 -35 0 -50z m253 26 c0 -5 -7 -9
-15 -9 -8 0 -15 -4 -15 -10 0 -16 -17 -12 -24 6 -3 8 -2 13 3 10 5 -3 14 1 21
9 12 15 30 12 30 -6z m-490 -19 c0 -5 -4 -10 -10 -10 -5 0 -10 5 -10 10 0 6 5
10 10 10 6 0 10 -4 10 -10z m207 -12 c-3 -8 -6 -5 -6 6 -1 11 2 17 5 13 3 -3
4 -12 1 -19z m73 -13 c0 -8 -4 -15 -10 -15 -5 0 -10 7 -10 15 0 8 5 15 10 15
6 0 10 -7 10 -15z m185 -5 c3 -5 -1 -10 -10 -10 -9 0 -13 5 -10 10 3 6 8 10
10 10 2 0 7 -4 10 -10z m-48 -6 c-3 -3 -12 -4 -19 -1 -8 3 -5 6 6 6 11 1 17
-2 13 -5z m49 -42 c1 -7 0 -8 -3 -2 -2 5 -9 8 -14 4 -5 -3 -9 0 -9 6 0 15 23
7 26 -8z"/>
<path d="M1831 224 c0 -11 3 -14 6 -6 3 7 2 16 -1 19 -3 4 -6 -2 -5 -13z"/>
<path d="M2013 220 c4 -25 17 -38 17 -17 0 21 16 22 24 2 8 -23 28 -18 24 6
-2 16 -11 23 -35 25 -28 3 -32 1 -30 -16z"/>
<path d="M1950 215 c0 -8 5 -15 10 -15 6 0 10 7 10 15 0 8 -4 15 -10 15 -5 0
-10 -7 -10 -15z"/>
<path d="M1980 216 c0 -9 5 -16 10 -16 6 0 10 4 10 9 0 6 -4 13 -10 16 -5 3
-10 -1 -10 -9z"/>
<path d="M2651 202 c-11 -11 -11 -16 -1 -22 9 -6 9 -13 1 -28 -16 -29 -14 -35
8 -29 12 3 22 -1 25 -9 3 -8 18 -14 33 -14 27 1 27 1 9 15 -17 13 -18 15 -3
15 10 0 17 8 17 20 0 14 6 20 17 18 12 -2 18 4 19 19 1 15 -6 23 -25 26 -14 3
-33 1 -41 -5 -12 -7 -11 -8 5 -4 19 6 19 5 2 -8 -11 -8 -26 -12 -35 -8 -10 4
-12 7 -4 10 7 2 12 7 12 11 0 13 -25 8 -39 -7z"/>
<path d="M1535 200 c-4 -6 -11 -8 -16 -5 -5 4 -9 1 -9 -4 0 -6 11 -11 25 -11
18 0 23 4 19 15 -7 18 -11 19 -19 5z"/>
<path d="M1647 203 c-2 -5 -1 -17 3 -27 6 -19 7 -19 12 2 6 21 -6 40 -15 25z"/>
<path d="M2791 192 c-1 -29 32 -27 38 3 3 16 1 17 -12 7 -12 -10 -16 -10 -20
0 -3 7 -6 3 -6 -10z"/>
<path d="M3015 200 c-3 -5 1 -10 9 -10 9 0 16 5 16 10 0 6 -4 10 -9 10 -6 0
-13 -4 -16 -10z"/>
<path d="M3760 206 c0 -2 7 -7 16 -10 8 -3 12 -2 9 4 -6 10 -25 14 -25 6z"/>
<path d="M1831 184 c0 -11 3 -14 6 -6 3 7 2 16 -1 19 -3 4 -6 -2 -5 -13z"/>
<path d="M2850 191 c0 -6 5 -13 10 -16 6 -3 10 1 10 9 0 9 -4 16 -10 16 -5 0
-10 -4 -10 -9z"/>
<path d="M3700 192 c0 -4 11 -9 25 -10 14 -1 25 3 25 8 0 6 -11 10 -25 10 -14
0 -25 -4 -25 -8z"/>
<path d="M1458 183 c7 -3 16 -2 19 1 4 3 -2 6 -13 5 -11 0 -14 -3 -6 -6z"/>
<path d="M1690 161 c0 -16 5 -33 10 -36 7 -4 10 6 8 25 -3 41 -18 50 -18 11z"/>
<path d="M1950 179 c0 -5 5 -7 10 -4 6 3 10 8 10 11 0 2 -4 4 -10 4 -5 0 -10
-5 -10 -11z"/>
<path d="M2400 180 c0 -5 7 -10 15 -10 8 0 15 5 15 10 0 6 -7 10 -15 10 -8 0
-15 -4 -15 -10z"/>
<path d="M1760 160 c0 -5 9 -10 20 -10 11 0 20 5 20 10 0 6 -9 10 -20 10 -11
0 -20 -4 -20 -10z"/>
<path d="M2830 150 c0 -5 5 -10 10 -10 6 0 10 5 10 10 0 6 -4 10 -10 10 -5 0
-10 -4 -10 -10z"/>
<path d="M1865 130 l30 -22 -32 4 c-24 3 -33 0 -36 -14 -4 -15 -1 -18 15 -12
17 5 19 3 14 -14 -4 -11 -2 -23 4 -27 7 -4 14 2 17 14 11 43 35 14 26 -32 -3
-16 -1 -27 6 -27 6 0 11 14 11 31 0 27 2 30 15 19 8 -7 15 -21 15 -31 0 -11 5
-19 11 -19 7 0 9 10 7 25 -3 14 -1 28 4 31 5 3 4 12 -3 20 -9 11 -9 17 1 29
14 16 3 20 -19 6 -8 -5 -12 -18 -9 -29 4 -15 2 -19 -8 -15 -8 3 -14 18 -14 33
0 29 -4 31 -65 47 -14 3 -11 -2 10 -17z"/>
<path d="M2761 134 c0 -11 3 -14 6 -6 3 7 2 16 -1 19 -3 4 -6 -2 -5 -13z"/>
<path d="M3800 140 c0 -5 7 -10 16 -10 8 0 12 5 9 10 -3 6 -10 10 -16 10 -5 0
-9 -4 -9 -10z"/>
<path d="M1084 121 c-26 -21 -38 -61 -18 -61 8 0 14 7 14 16 0 9 9 25 20 34
27 23 12 34 -16 11z"/>
<path d="M1600 132 c0 -5 14 -7 30 -4 17 2 30 6 30 8 0 2 -13 4 -30 4 -16 0
-30 -4 -30 -8z"/>
<path d="M1500 120 c0 -5 5 -10 10 -10 6 0 10 5 10 10 0 6 -4 10 -10 10 -5 0
-10 -4 -10 -10z"/>
<path d="M1548 113 c7 -3 16 -2 19 1 4 3 -2 6 -13 5 -11 0 -14 -3 -6 -6z"/>
<path d="M1650 105 c0 -8 2 -15 4 -15 2 0 6 7 10 15 3 8 1 15 -4 15 -6 0 -10
-7 -10 -15z"/>
<path d="M1768 83 c7 -3 16 -2 19 1 4 3 -2 6 -13 5 -11 0 -14 -3 -6 -6z"/>
<path d="M2930 80 c0 -5 5 -10 10 -10 6 0 10 5 10 10 0 6 -4 10 -10 10 -5 0
-10 -4 -10 -10z"/>
<path d="M1695 70 c-3 -5 -1 -10 4 -10 6 0 11 5 11 10 0 6 -2 10 -4 10 -3 0
-8 -4 -11 -10z"/>
<path d="M2725 70 c-3 -5 1 -10 9 -10 9 0 16 5 16 10 0 6 -4 10 -9 10 -6 0
-13 -4 -16 -10z"/>
<path d="M1600 61 c0 -5 6 -13 13 -19 10 -8 13 -6 14 9 1 10 -5 19 -13 19 -8
0 -14 -4 -14 -9z"/>
<path d="M1655 60 c3 -5 8 -10 11 -10 2 0 4 5 4 10 0 6 -5 10 -11 10 -5 0 -7
-4 -4 -10z"/>
<path d="M2640 61 c0 -5 6 -12 13 -14 10 -4 10 -6 0 -6 -22 -2 -14 -28 10 -35
12 -3 44 -6 71 -6 42 0 47 2 36 15 -7 8 -16 12 -21 9 -5 -3 -9 -1 -9 5 0 5 6
12 13 15 6 3 -6 3 -28 1 -22 -3 -34 -2 -27 1 24 11 12 24 -23 24 -19 0 -35 -4
-35 -9z"/>
<path d="M2890 50 c0 -5 5 -10 11 -10 5 0 7 5 4 10 -3 6 -8 10 -11 10 -2 0 -4
-4 -4 -10z"/>
<path d="M1688 43 c7 -3 16 -2 19 1 4 3 -2 6 -13 5 -11 0 -14 -3 -6 -6z"/>
<path d="M1765 40 c-7 -12 2 -12 30 0 19 8 19 9 -2 9 -12 1 -25 -3 -28 -9z"/>
<path d="M1984 35 c-3 -8 -4 -20 -2 -27 3 -7 7 -1 10 15 6 29 1 36 -8 12z"/>
<path d="M2778 43 c6 -2 18 -2 25 0 6 3 1 5 -13 5 -14 0 -19 -2 -12 -5z"/>
<path d="M2928 43 c7 -3 16 -2 19 1 4 3 -2 6 -13 5 -11 0 -14 -3 -6 -6z"/>
<path d="M1033 26 c-10 -11 -9 -15 2 -20 10 -4 15 1 15 14 0 23 -1 24 -17 6z"/>
<path d="M1062 20 c0 -14 2 -19 5 -12 2 6 2 18 0 25 -3 6 -5 1 -5 -13z"/>
<path d="M1212 20 c0 -14 2 -19 5 -12 2 6 2 18 0 25 -3 6 -5 1 -5 -13z"/>
<path d="M1932 20 c0 -14 2 -19 5 -12 2 6 2 18 0 25 -3 6 -5 1 -5 -13z"/>
<path d="M2850 15 c0 -8 5 -15 10 -15 6 0 10 7 10 15 0 8 -4 15 -10 15 -5 0
-10 -7 -10 -15z"/>
<path d="M1860 10 c0 -5 5 -10 10 -10 6 0 10 5 10 10 0 6 -4 10 -10 10 -5 0
-10 -4 -10 -10z"/>
<path d="M2810 10 c0 -5 5 -10 10 -10 6 0 10 5 10 10 0 6 -4 10 -10 10 -5 0
-10 -4 -10 -10z"/>
</g>
</svg>
